<?xml version="1.0" encoding="UTF-8"?>
<svg width="1200pt" height="1200pt" version="1.1" viewBox="0 0 1200 1200" xmlns="http://www.w3.org/2000/svg">
 <path d="m382.31 182.21c-47.625 82.969-54.188 103.27-155.95 91.406 18 70.828 27.562 111.89-7.3594 180.94 110.77 16.734 101.39 38.672 112.03 155.72 63.656-69.094 75.234-95.203 170.44-62.719 18.703-69.984 32.766-90.938 104.34-121.55-55.828-65.719-77.109-86.484-52.594-175.22-85.172 0.9375-116.91 4.4531-170.9-68.531zm341.48 0c-12.844 91.172-40.594 101.77-117.98 139.82 63.75 66.281 55.125 93.703 36.609 177.74 122.86-24.234 137.48 40.406 204.19 134.9 11.484-125.26 1.1719-136.18 121.78-124.22-20.391-85.875-4.3125-111.98 46.125-177.19-98.062-29.672-96.047-50.859-106.69-145.92-78.609 45.516-106.31 29.625-184.08-5.1094zm-364.6 126.61h17.484c5.8125 0 11.672 0 11.672 17.484 0 17.484-5.8125 52.453-11.672 69.984-5.8125 17.484-11.672 17.484-17.484 2.9062-5.8125-14.578-11.672-43.734-14.578-61.219-2.9062-17.484-2.9062-23.297 0-26.25 2.9062-2.9062 8.7656-2.9062 14.578-2.9062zm65.203 0h17.484c5.8125 0 11.672 0 11.672 17.484 0 17.484-5.8125 52.453-11.672 69.984-5.8125 17.484-11.672 17.484-17.484 2.9062-5.8125-14.578-11.672-43.734-14.578-61.219-2.9062-17.484-2.9062-23.297 0-26.25 2.9062-2.9062 8.7656-2.9062 14.578-2.9062zm335.34 0h17.484c5.8125 0 11.672 0 11.672 17.484 0 17.484-5.8125 52.453-11.672 69.984-5.8125 17.484-11.672 17.484-17.484 2.9062-5.8125-14.578-11.672-43.734-14.578-61.219-2.9062-17.484-2.9062-23.297 0-26.25 2.9062-2.9062 8.7656-2.9062 14.578-2.9062zm65.203 0h17.484c5.8125 0 11.672 0 11.672 17.484 0 17.484-5.8125 52.453-11.672 69.984-5.8125 17.484-11.672 17.484-17.484 2.9062-5.8125-14.578-11.672-43.734-14.578-61.219-2.9062-17.484-2.9062-23.297 0-26.25 2.9062-2.9062 8.7656-2.9062 14.578-2.9062zm-455.48 106.55c3.7031 0 7.2656 1.9219 9.8906 5.3906s4.125 8.1562 4.125 13.078c0 4.875-1.5 9.5625-4.125 13.031s-6.1875 5.4375-9.8906 5.4375c-7.7344 0-14.016-8.2969-14.016-18.469 0-10.219 6.2812-18.469 14.016-18.469zm65.203 0c3.7031 0 7.2656 1.9219 9.8906 5.3906s4.0781 8.1562 4.0781 13.078c0 4.875-1.4531 9.5625-4.0781 13.031s-6.1875 5.4375-9.8906 5.4375c-7.7344 0-14.016-8.2969-14.016-18.469 0-10.219 6.2812-18.469 14.016-18.469zm335.34 0c3.7031 0 7.2656 1.9219 9.8906 5.3906s4.0781 8.1562 4.0781 13.078c0 4.875-1.4531 9.5625-4.0781 13.031s-6.1875 5.4375-9.8906 5.4375c-7.7344 0-14.016-8.2969-14.016-18.469 0-10.219 6.2812-18.469 14.016-18.469zm65.203 0c3.7031 0 7.2656 1.9219 9.8906 5.3906s4.0781 8.1562 4.0781 13.078c0 4.875-1.4531 9.5625-4.0781 13.031s-6.1875 5.4375-9.8906 5.4375c-7.7344 0-14.016-8.2969-14.016-18.469 0-10.219 6.2812-18.469 14.016-18.469zm-547.6 224.86h-0.046875c-15.984 0-31.266 6.3281-42.562 17.625s-17.625 26.578-17.625 42.562c0 33.234 26.953 60.188 60.188 60.188s60.188-26.953 60.188-60.188c0-15.984-6.3281-31.266-17.625-42.562s-26.578-17.625-42.562-17.625zm624.84 0h-0.046874c-15.984 0-31.266 6.3281-42.562 17.625-11.297 11.297-17.625 26.578-17.625 42.562 0 33.234 26.953 60.188 60.188 60.188 33.234 0 60.188-26.953 60.188-60.188 0-15.984-6.3281-31.266-17.625-42.562-11.297-11.297-26.625-17.625-42.562-17.625zm-231.84 54.141h-0.046875c-4.4062-0.1875-8.7656 0.84375-12.656 2.9531-12.234 6.5156-16.828 21.703-10.312 33.891 16.172 30.234 32.484 60.844 48.844 86.625 16.312 25.781 30.797 47.156 53.297 59.484 11.25 6.1406 24.75 8.2969 36.516 6s21.281-8.1094 29.203-14.578c6.8438-5.5312 12.797-11.812 18.328-18.328v167.34h137.11v-181.78c24.656 10.172 48.234 20.25 65.578 30.094 19.547 11.109 27.797 22.266 28.078 23.766s-2.5781 12.422-16.547 27.984c-13.922 15.562-35.438 33.797-57.609 52.406h0.14062c-5.1094 4.2656-8.2969 10.406-8.9062 17.016-0.5625 6.6094 1.5469 13.219 5.8125 18.328 4.2656 5.0625 10.406 8.25 17.016 8.8594 6.6562 0.5625 13.219-1.5 18.328-5.8125 22.125-18.562 44.906-37.5 62.672-57.328s34.031-42.562 28.406-71.156c-5.6719-28.594-28.453-44.016-52.5-57.656-24.047-13.688-52.781-25.312-80.859-36.797h-0.046875c-3-1.1719-6.2344-1.7344-9.4688-1.6875v-0.14062h-137.11v0.42188h-0.046875c-7.9688-0.046875-15.469 3.6562-20.25 10.031-11.156 15.281-22.031 29.25-29.719 35.484-3.8438 3.1406-6.4688 4.125-7.2656 4.2656-0.84375 0.14062-0.375 0.51562-2.7656-0.79688-4.8281-2.625-20.203-18.984-34.969-42.281-14.766-23.344-30.797-53.203-46.969-83.438l-0.046875 0.046875c-4.2188-7.9219-12.328-12.938-21.281-13.266zm-103.69 51.984h-0.046875c-6.6094-0.51562-13.172 1.5938-18.234 5.9062-25.266 21.562-50.203 42.797-72.469 58.875s-42.422 26.25-53.109 28.125c-10.688 1.8281-16.312-0.51562-25.641-8.2031s-19.828-21.422-31.031-36.703l-0.046875-0.046875c-4.7344-6.375-12.281-10.078-20.203-10.031v-0.42188h-137.16v0.14062c-3.2344-0.046875-6.4688 0.51562-9.4688 1.6875-28.078 11.484-56.812 23.156-80.859 36.797-24.047 13.688-46.875 29.062-52.5 57.656-5.6719 28.594 10.594 51.328 28.406 71.156 17.766 19.828 40.547 38.766 62.672 57.328h-0.046874c5.1094 4.3125 11.672 6.375 18.328 5.8125 6.6094-0.60938 12.75-3.7969 17.016-8.8594 4.2656-5.1094 6.375-11.719 5.8125-18.328-0.60938-6.6094-3.7969-12.75-8.9062-17.016-22.125-18.609-43.641-36.844-57.562-52.406-13.969-15.562-16.828-26.438-16.547-27.938s8.5312-12.656 28.078-23.766c17.344-9.8438 40.922-19.922 65.578-30.094v181.78h137.11v-167.48c5.7656 6.7969 12.094 13.406 19.359 19.406 16.547 13.641 40.312 23.391 66.141 18.938 25.781-4.4531 49.125-18.984 73.922-36.844 24.797-17.906 50.391-39.844 75.703-61.406h-0.046875c10.547-9 11.812-24.797 2.8125-35.344-4.3125-5.0625-10.453-8.2031-17.109-8.7188z" fill="#a25554"/>
</svg>
