<?xml version="1.0" encoding="UTF-8"?>
<svg width="1200pt" height="1200pt" version="1.1" viewBox="0 0 1200 1200" xmlns="http://www.w3.org/2000/svg">
 <path d="m144 288c0-13.254 10.746-24 24-24h96c13.254 0 24 10.746 24 24s-10.746 24-24 24h-96c-13.254 0-24-10.746-24-24zm24 144h96c13.254 0 24-10.746 24-24s-10.746-24-24-24h-96c-13.254 0-24 10.746-24 24s10.746 24 24 24zm996 372c0 13.254-10.746 24-24 24h-36v144c0 51.262-35.996 94.25-84 105.21v74.785c0 13.254-10.746 24-24 24s-24-10.746-24-24v-74.785c-48.004-10.965-84-53.953-84-105.21v-144h-36c-13.254 0-24-10.746-24-24s10.746-24 24-24h120v-186c0-69.48-56.523-126-126-126s-126 56.52-126 126v373.58c0 104.65-78.195 193.48-181.89 206.64-9.418 1.1953-18.812 1.7812-28.121 1.7812-55.586 0-108.42-20.988-148.17-59.59-30.676-29.562-50.859-67.473-58.352-108.41h-26.875c-26.797 0-48.594-21.797-48.594-48.598v-47.402h-95.785c-53.055 0-96.215-43.16-96.215-96.223v-575.55c0-53.062 43.16-96.223 96.215-96.223h95.785v-24c0-52.934 43.066-96 96-96s96 43.066 96 96v24h95.785c53.055 0 96.215 43.16 96.215 96.223v575.55c0 53.062-43.16 96.223-96.215 96.223h-95.785v47.402c0 26.801-21.797 48.598-48.59 48.598h-18.945c6.8086 27.789 21.465 53.422 42.734 73.91 35.934 34.898 85.734 51.141 136.88 44.684 79.766-10.113 139.93-78.48 139.93-159.01v-373.58c0-95.941 78.059-174 174-174s174 78.059 174 174v186h120c13.254 0 24 10.746 24 24zm-888-660h96v-24c0-26.473-21.535-48-48-48s-48 21.527-48 48zm-192 96.223v290c114.71 17.82 177.06-6.2852 242.76-31.859 63.215-24.645 128.68-49.895 237.24-33.777v-224.36c0-26.59-21.633-48.223-48.215-48.223h-383.57c-26.582 0-48.215 21.633-48.215 48.223zm48.215 623.78h383.57c26.582 0 48.215-21.633 48.215-48.223v-302.66c-100.44-16.441-158.52 6.1211-219.84 30-66.359 25.801-134.64 52.441-253.56 36.602l-6.6016-3.7227v239.78c0 26.59 21.633 48.223 48.215 48.223zm239.2 96c0.32422 0 0.58984-0.26953 0.58984-0.59766v-47.402h-96v47.402zm684.59-132h-120v144c0 33.121 26.879 60 60 60s60-26.879 60-60z" fill="#a25554"/>
</svg>
