<?xml version="1.0" encoding="UTF-8"?>
<svg width="1200pt" height="1200pt" version="1.1" viewBox="0 0 1200 1200" xmlns="http://www.w3.org/2000/svg">
 <path d="m363.4 525v37.5h173.81v-37.5zm338.71 0h-56.273v37.5h99.727zm0 0h-56.273v37.5h99.727zm-338.71 0v37.5h173.81v-37.5zm-203.8 0-21.727 37.5h116.89v-37.5zm203.8 0v37.5h173.81v-37.5zm338.71 0h-56.273v37.5h99.727zm0 0h-56.273v37.5h99.727zm-338.71 0v37.5h173.81v-37.5zm-203.8 0-21.727 37.5h116.89v-37.5zm998.55 206.25h-77.781c-11.949 0-21.727-8.4375-21.727-18.75v-75c0-10.312 9.7773-18.75 21.727-18.75h51.711l-4.3438-18.75h-242.9c-5.8672 0-11.297-2.0625-15.426-5.4375l-167.3-144.56h-585.31l-79.301 153.94v146.06h154.26c0.21875-0.375 0.21875-0.75 0.43359-0.9375 1.3047-5.4375 3.2578-10.688 5.6484-15.75 0.86719-1.6875 1.9531-3.375 2.8242-5.0625 1.9531-3.5625 3.9102-6.9375 6.3008-10.125 1.5195-1.6875 3.043-3.5625 4.5625-5.25 2.3906-2.8125 4.9961-5.4375 7.6055-8.0625 1.957-1.6875 3.6953-3.1875 5.6484-4.6875 3.043-2.4375 6.0859-4.5 9.3438-6.5625 1.957-1.3125 4.1289-2.8125 6.5195-3.9375 3.2578-1.875 6.9531-3.5625 10.648-5.0625 2.3906-0.9375 4.5625-1.875 6.9531-2.8125 4.1289-1.5 8.4727-2.4375 12.82-3.375 2.1719-0.5625 4.3438-1.125 6.5195-1.5 6.7266-1.125 13.461-1.875 20.633-1.875s13.906 0.75 20.641 1.875c2.1719 0.375 4.3438 0.9375 6.5195 1.5 4.3438 0.9375 8.6914 1.875 12.82 3.375 2.3906 0.9375 4.5625 1.875 6.9531 2.8125 3.6953 1.5 7.3867 3.1875 10.648 5.0625 2.3906 1.125 4.5625 2.625 6.5195 3.9375 3.2578 2.0625 6.3008 4.125 9.3438 6.5625 1.9531 1.5 3.6914 3 5.6484 4.6875 2.6055 2.625 5.2148 5.25 7.6055 8.0625 1.5195 1.6875 3.043 3.5625 4.5625 5.25 2.3906 3.1875 4.3438 6.5625 6.3008 10.125 0.87109 1.6875 1.957 3.375 2.8242 5.0625 2.3906 5.0625 4.3438 10.312 5.6484 15.75 0.20703 0.1875 0.20703 0.5625 0.42578 0.9375h438.88c0.21875-0.375 0.21875-0.75 0.43359-0.9375 1.3047-5.4375 3.2578-10.688 5.6484-15.75 0.86719-1.6875 1.9531-3.375 2.8242-5.0625 1.9531-3.5625 3.9102-6.9375 6.3008-10.125 1.5195-1.6875 3.043-3.5625 4.5625-5.25 2.3906-2.8125 4.9961-5.4375 7.6055-8.0625 1.957-1.6875 3.6953-3.1875 5.6484-4.6875 3.043-2.4375 6.0859-4.5 9.3438-6.5625 1.957-1.3125 4.1289-2.8125 6.5195-3.9375 3.2578-1.875 6.9531-3.5625 10.648-5.0625 2.3906-0.9375 4.5625-1.875 6.9531-2.8125 4.1289-1.5 8.4727-2.4375 12.82-3.375 2.1719-0.5625 4.3438-1.125 6.5195-1.5 6.7266-1.125 13.461-1.875 20.633-1.875s13.906 0.75 20.641 1.875c2.1719 0.375 4.3438 0.9375 6.5156 1.5 4.3438 0.9375 8.6914 1.875 12.82 3.375 2.3906 0.9375 4.5625 1.875 6.9531 2.8125 3.6953 1.5 7.3867 3.1875 10.648 5.0625 2.3906 1.125 4.5625 2.625 6.5195 3.9375 3.2578 2.0625 6.3008 4.125 9.3438 6.5625 1.9531 1.5 3.6914 3 5.6484 4.6875 2.6055 2.625 5.2148 5.25 7.6055 8.0625 1.5195 1.6875 3.043 3.5625 4.5625 5.25 2.3906 3.1875 4.3438 6.5625 6.3008 10.125 0.87109 1.6875 1.957 3.375 2.8242 5.0625 2.3906 5.0625 4.3438 10.312 5.6484 15.75 0.21094 0.1875 0.21094 0.5625 0.42578 0.9375h106.03zm-859.94-150c0 10.312-9.7773 18.75-21.727 18.75h-173.81c-7.6055 0-14.555-3.375-18.469-8.8125-3.9102-5.625-4.3438-12.562-0.87109-18.375l43.453-75c3.4805-6.375 11.082-10.312 19.34-10.312h130.36c11.949 0 21.727 8.4375 21.727 18.75zm195.54 75h-43.453c-11.949 0-21.727-8.4375-21.727-18.75s9.7773-18.75 21.727-18.75h43.453c11.949 0 21.727 8.4375 21.727 18.75s-9.7773 18.75-21.727 18.75zm86.906-75c0 10.312-9.7773 18.75-21.727 18.75h-217.27c-11.949 0-21.727-8.4375-21.727-18.75v-75c0-10.312 9.7773-18.75 21.727-18.75h217.27c11.949 0 21.727 8.4375 21.727 18.75zm130.36 75h-43.453c-11.949 0-21.727-8.4375-21.727-18.75s9.7773-18.75 21.727-18.75h43.453c11.949 0 21.727 8.4375 21.727 18.75s-9.7773 18.75-21.727 18.75zm106.89-67.875c-3.2617 7.125-11.297 11.625-19.988 11.625h-173.81c-11.949 0-21.727-8.4375-21.727-18.75v-75c0-10.312 9.7773-18.75 21.727-18.75h86.906c5.8672 0 11.297 2.0625 15.426 5.4375l86.906 75c6.082 5.4375 8.0391 13.5 4.5625 20.438zm-172.07-63.375v37.5h99.727l-43.453-37.5zm-282.45 37.5h173.81v-37.5h-173.81zm-225.52 0h116.89v-37.5h-95.164zm21.727-37.5-21.727 37.5h116.89v-37.5zm203.8 0v37.5h173.81v-37.5zm338.71 0h-56.273v37.5h99.727zm0 0h-56.273v37.5h99.727zm-338.71 0v37.5h173.81v-37.5zm-203.8 0-21.727 37.5h116.89v-37.5zm542.51 0h-56.273v37.5h99.727zm0 0h-56.273v37.5h99.727zm247.9 187.5c-35.848 0-65.18 25.312-65.18 56.25s29.332 56.25 65.18 56.25 65.18-25.312 65.18-56.25-29.332-56.25-65.18-56.25zm-651.8 0c-35.848 0-65.18 25.312-65.18 56.25s29.332 56.25 65.18 56.25 65.18-25.312 65.18-56.25-29.332-56.25-65.18-56.25zm-130.36-337.5v37.5h391.08v-37.5zm972.91 281.25h-38.672v37.5h47.363z" fill="#a25554"/>
</svg>
