<?xml version="1.0" encoding="UTF-8"?>
<svg width="1200pt" height="1200pt" version="1.1" viewBox="0 0 1200 1200" xmlns="http://www.w3.org/2000/svg">
 <path d="m131.26 515.63c-2.625 0-5.25-1.125-7.0312-3.1875l-65.625-75c-2.8125-3.1875-3.0938-7.8281-0.75-11.344 12.281-18.469 26.531-29.531 35.953-35.391l-7.5-10.031c-1.7812-2.4375-2.3438-5.5312-1.4531-8.4375 0.89063-2.8594 3.0938-5.1562 6-6.0938 11.344-3.7969 22.031-4.8281 31.078-4.5938l-7.1719-8.625c-2.3438-2.8125-2.8125-6.6562-1.3125-9.9844 1.5469-3.2812 4.875-5.3906 8.4844-5.3906 69 0 113.91 24.188 130.22 34.734 67.359-65.109 97.734-52.969 97.734-52.969 0.9375 0.32812 1.875 0.79688 2.6719 1.4062l75 56.25c3.2344 2.4375 4.5469 6.6562 3.2812 10.453-1.2656 3.8438-4.875 6.4219-8.9062 6.4219-5.25 0-10.594 0.32812-15.938 0.9375l12.703 17.812h50.062v-75c0-76.5 54.047-140.53 126-155.86l0.375-0.09375c9-2.25 18.469-3.4219 28.172-3.4219h4.8281c87.938 0 159.37 71.438 159.37 159.37v15.094l212.68-70.875c2.8594-0.9375 6-0.46875 8.4375 1.2656 2.4375 1.7812 3.8906 4.5938 3.8906 7.5938v191.16l129.94 216.52c0.84375 1.4531 1.3125 3.0938 1.3125 4.8281v37.5c0 5.1562-4.2188 9.375-9.375 9.375h-84.375v290.63c0 5.1562-4.2188 9.375-9.375 9.375h-37.5c-2.5312 0-4.875-0.98438-6.6562-2.7188l-152.72-152.76v52.359c0 5.1562-4.2188 9.375-9.375 9.375h-56.25c-5.1562 0-9.375-4.2188-9.375-9.375v-56.25c0-5.1562 4.2188-9.375 9.375-9.375h12.938l-9.375-18.75h-107.81l-7.0312 56.25h17.531c5.1562 0 9.375 4.2188 9.375 9.375v56.25c0 5.1562-4.2188 9.375-9.375 9.375h-56.25c-5.1562 0-9.375-4.2188-9.375-9.375v-56.25c0-5.1562 4.2188-9.375 9.375-9.375h19.875l7.0312-56.25h-130.03v19.922c16.172 4.1719 28.125 18.844 28.125 36.328 0 20.719-16.781 37.5-37.5 37.5s-37.5-16.781-37.5-37.5c0-17.438 11.953-32.156 28.125-36.328v-19.922h-117.98l-184.74 184.78c-1.7812 1.7344-4.125 2.7188-6.6562 2.7188h-37.5c-5.1562 0-9.375-4.2188-9.375-9.375v-290.63h-84.375c-5.1562 0-9.375-4.2188-9.375-9.375v-37.5c0-1.6875 0.46875-3.3281 1.3125-4.8281l81.281-135.47-2.7656-1.5c-3-1.6406-4.875-4.7812-4.875-8.2031v-37.5zm-26.156-109.88c-6.5625 3.9375-17.391 11.719-27.516 24.938l56.25 64.312 104.77-44.906c-11.812-3.1875-24-3.6562-35.25-2.8594-27.375 1.9219-49.594 11.438-49.594 11.438-3.9844 1.6875-8.625 0.46875-11.203-3l-37.406-49.875zm155.34 55.359-16.453 7.0312 120.42 66.234s34.406-30.094 34.5-30.188l32.391-28.312v-7.5938l-8.8125-0.46875c-0.28125 2.2031-1.3125 4.3594-3.1406 5.9531l-47.484 41.531c-2.9531 2.625-7.2188 3.0938-10.688 1.1719l-100.69-55.359zm-51 21.844-17.484 7.5 129.56 107.53 76.453-44.672 2.5312-17.766-69.281 40.5c-3.375 1.9688-7.6875 1.6406-10.688-0.89062l-111.05-92.203zm-36.844 15.797-22.594 9.6562v1.6875l107.44 59.109zm-32.812-115.69c-4.4531-1.3594-15.797-4.0781-29.953-2.1562l43.406 57.891c9.5156-3.3281 27.797-8.8125 48.75-10.266 9.1875-0.65625 18.797-0.51562 28.453 0.84375-29.531-21.797-60.188-16.969-60.188-16.969-3.2812 0.5625-6.6094-0.70312-8.7188-3.2344zm245.81 15.375c-37.5 9.0469-73.406 29.438-95.438 43.688l131.48 6.9375-35.578-49.781c-0.1875-0.28125-0.375-0.51562-0.51562-0.79688zm46.453 32.859 7.2188 10.125c0.42188-0.046875 0.89062-0.09375 1.3594-0.09375 5.1562 0 9.375 4.2188 9.375 9.375v29.484c0 2.7188-1.1719 5.25-3.1875 7.0312l-27.469 24.047c1.9688 2.0625 2.8594 4.9688 2.4375 7.7812l-5.9062 41.438c-0.32812 2.3438-1.5469 4.5-3.375 5.9531v23.203l18.516 83.391c0.84375 3.8438-0.75 7.7812-4.0781 9.8906-3.2812 2.1562-7.5938 1.9688-10.688-0.375-27.844-20.859-54.094-30.984-64.5-34.5l-17.484 15.281c-2.9531 2.625-7.2188 3.0469-10.688 1.1719l-31.969-17.578c-8.7656 7.2656-28.266 24.375-46.875 46.875h231.19l37.5-18.75h-35.297c-5.1562 0-9.375-4.2188-9.375-9.375v-93.75c0-5.1562 4.2188-9.375 9.375-9.375h4.875l-13.594-34.031c-1.9219-4.8281 0.42188-10.266 5.2031-12.188 4.8281-1.9219 10.266 0.42188 12.188 5.2031l16.406 40.969h3v-28.125c0-5.1562 4.2188-9.375 9.375-9.375s9.375 4.2188 9.375 9.375v28.125h12l7.2188-21.703c1.6406-4.9219 6.9375-7.5938 11.859-5.9062 4.9219 1.6406 7.5938 6.9375 5.9062 11.859l-5.4844 16.406c3.4688 1.3594 5.9531 4.7812 5.9531 8.7188v78.562l98.906-49.453c2.7656-1.4062 6.0469-1.3125 8.7656 0.1875l112.5 62.484c3.2812 1.8281 5.1562 5.4375 4.7812 9.1875s-3 6.8906-6.6094 7.9688l-42.562 12.891h379.55l-105.56-175.97c-0.75 3.0938-3 5.6719-6.1406 6.7031l-281.26 93.75c-2.5312 0.84375-5.25 0.5625-7.5-0.70312l-168.74-93.75c-3.2344-1.7812-5.1094-5.3438-4.7812-9.0469s2.8594-6.8438 6.375-8.0156l162.32-54.094v-21.375h-280.45zm-33 35.344-99.234-5.25 64.594 35.531zm88.453-54.094h18.75v-117.33c0-13.125 2.1562-25.781 6.1875-37.594-15.703 22.688-24.938 50.25-24.938 79.922zm37.5 0h187.5v-28.125c0-4.0312 2.5781-7.5938 6.4219-8.9062l49.828-16.594v-21.375c0-6.375-0.42188-12.609-1.2188-18.75h-242.53zm74.344-212.68-0.375 0.09375c-42.516 10.828-73.969 49.406-73.969 95.25v4.8281h238.69c-16.406-59.438-70.922-103.12-135.56-103.12-9.8438 0-19.5 1.0312-28.781 2.9531zm113.16 393.61v-121.03l-136.22 45.375zm412.5 119.06h-437.16c-9.2812 5.25-17.906 11.531-25.781 18.75h462.89v-18.75zm-93.75 37.5h-18.75v281.26h18.75zm-37.5 0h-56.25v103.12c0 5.1562-4.2188 9.375-9.375 9.375h-89.859l155.48 155.48zm-75 0h-274.69l-87.516 93.75h362.16v-93.75zm-88.266 131.26-18.75-18.75h-9.0938l9.375 18.75zm-24.375 18.75h-18.656v37.5h37.5v-37.5zm-444.37-37.5h-89.859c-5.1562 0-9.375-4.2188-9.375-9.375v-103.12h-52.547c-1.4062 3.5625-2.625 7.125-3.7031 10.688v257.29zm-80.484-112.5v93.75h252.14l-43.734-93.75zm374.9 187.5h-18.656v37.5h37.5v-37.5zm-140.53-37.5c-10.359 0-18.75 8.3906-18.75 18.75s8.3906 18.75 18.75 18.75 18.75-8.3906 18.75-18.75-8.3906-18.75-18.75-18.75zm-328.13 131.26v-267.98l-13.266-13.266h-5.4844v281.26zm-112.5-318.74v18.75h80.484l-18.75-18.75zm80.297-140.63-73.125 121.87h35.812l-2.7656-2.7188c-3-3-3.6094-7.5938-1.5-11.297 0 0 31.594-55.594 102-74.578l-60.469-33.234zm-5.2969-40.406v16.078l176.9 97.312 66.844-58.5v-8.9062l-12.656 7.4062-46.828 40.969c-2.9531 2.625-7.2188 3.0469-10.688 1.1719l-173.63-95.484zm247.4 76.594-29.578 25.875c10.078 4.0312 24.188 10.453 39.75 20.016l-10.219-45.891zm-123.28 29.156-32.953-18.141c-62.016 8.25-96.328 48.703-107.25 64.031l59.016 59.016c6.1875-15.188 14.859-29.812 24.469-43.172 0.46875-0.98438 1.125-1.875 1.875-2.625 19.312-26.391 41.859-47.719 54.844-59.156zm71.859-91.594-93.891-51.656 75.281 62.484 18.609-10.875zm126.19 166.82h-241.69c-4.1719 6-8.1094 12.281-11.672 18.75h262.08zm84.984-38.391-66.656 33.328s13.688 29.25 13.688 29.344l42.188 90.375 94.641-101.39c18.891-20.25 42.797-35.156 69.281-43.172l43.875-13.312-88.828-49.359s-108.14 54.094-108.28 54.141zm-13.406-92.859h-56.25v75h56.25zm-200.44-244.08c-2.6719 0.09375-10.078 0.75-19.641 5.0625-14.578 6.5625-35.531 20.438-63.891 48.797-3.375 3.375-8.7656 3.6562-12.469 0.65625 0 0-37.219-29.391-104.72-34.641l30.188 36.281c15.234-0.9375 58.641 0.70312 91.828 43.547 20.156-14.156 75.938-50.438 132.05-59.719l-53.344-40.031zm387.94 259.22 262.5-87.469v-205.22l-262.5 87.469z" fill="#a25554" fill-rule="evenodd"/>
</svg>
