<?xml version="1.0" encoding="UTF-8"?>
<svg width="1200pt" height="1200pt" version="1.1" viewBox="0 0 1200 1200" xmlns="http://www.w3.org/2000/svg">
 <path d="m517.05 422.7-97.051 109.8-91.5-37.5c-10.699-4.4102-22.895-3.1836-32.504 3.2617-9.6094 6.4492-15.367 17.266-15.348 28.84v227.55l-23.102 124.05h0.003906c-3.2188 17.02-10.473 33.016-21.152 46.652l-76.801 98.551 0.003906-0.003906c-6.7305 9.832-7.9609 22.426-3.2656 33.375 4.6953 10.949 14.668 18.734 26.43 20.637s23.676-2.3477 31.586-11.262l76.949-98.551v0.003906c13.57-17.676 23.742-37.715 30-59.102l38.699 136.2c1.9844 7.3438 6.3398 13.824 12.391 18.438 6.0469 4.6133 13.453 7.0938 21.059 7.0625 3.1484-0.015625 6.2773-0.47266 9.3008-1.3477 8.8594-2.4883 16.375-8.3789 20.898-16.391 4.5273-8.0117 5.6953-17.488 3.25-26.359l-76.797-273.45v-174.15l66.602 27.148h-0.003906c6.668 2.7383 14.023 3.3242 21.039 1.6836 7.0156-1.6367 13.348-5.4258 18.113-10.832l113.25-128.25c6.7109-6.8047 10.332-16.07 10.008-25.621-0.32422-9.5547-4.5625-18.555-11.719-24.887-7.1602-6.332-16.609-9.4453-26.129-8.6016-9.5234 0.84375-18.277 5.5664-24.211 13.059z" fill="#a25554"/>
 <path d="m390.8 367.75c9.8398 41.684-15.977 83.453-57.66 93.289-41.684 9.8398-83.453-15.977-93.293-57.66-9.8359-41.684 15.98-83.453 57.664-93.293 41.684-9.8359 83.453 15.98 93.289 57.664z" fill="#a25554"/>
 <path d="m267.9 267.9c2.0352 4.3477 7.2031 6.2266 11.551 4.2031 4.2812-2.0938 6.1367-7.1992 4.1992-11.551l-19.352-40.949 41.102 19.051v-0.003906c2.3555 1.2031 5.1445 1.2031 7.5 0 2.4102-1.2305 4.1211-3.4961 4.6523-6.1484l8.3984-45 21.898 39.449h0.003906c1.3125 2.3477 3.6406 3.9531 6.2969 4.3516 2.625 0.45312 5.3047-0.38281 7.2031-2.25l33-31.051-5.5508 45c-0.32812 2.668 0.61328 5.3359 2.5508 7.1992 1.8789 1.9141 4.5352 2.8555 7.1992 2.5508l45-5.6992-30 33c-3.3945 3.3945-3.3945 8.9023 0 12.301 1.625 1.5273 3.7695 2.3828 6 2.3984 2.3984-0.054688 4.6719-1.0859 6.3008-2.8516l47.102-50.699h-0.003906c2.4492-2.707 2.9844-6.6367 1.3516-9.8984-1.7695-3.168-5.2383-4.9922-8.8516-4.6523l-57.602 7.5 7.0508-57.602v0.003906c0.42578-3.6289-1.4219-7.1406-4.6484-8.8516-3.2617-1.6328-7.1953-1.0977-9.8984 1.3516l-42.75 40.949-27.602-51.301c-1.75-3.2344-5.375-4.9883-9-4.3477-3.6172 0.48438-6.4844 3.293-7.0508 6.8984l-10.801 57-52.648-24.449c-3.3125-1.5352-7.2266-0.83594-9.8086 1.7422-2.5781 2.582-3.2734 6.4961-1.7422 9.8086z" fill="#a25554"/>
 <path d="m521.25 650.7c-25.324 27.145-60.266 43.297-97.352 45-4.7695 0.32031-8.4219 4.375-8.25 9.1523 0.24219 4.625 4.0664 8.2539 8.7031 8.25 41.516-1.9883 80.633-20.066 109.05-50.402 3.3984-3.3945 3.3984-8.9023 0-12.301-3.4883-3.1367-8.8164-3.0039-12.148 0.30078z" fill="#a25554"/>
 <path d="m430.35 661.2c23.48-1.082 45.609-11.312 61.648-28.5 3.2734-3.5195 3.0703-9.0273-0.44922-12.301-3.5234-3.2695-9.0273-3.0703-12.301 0.45312-12.973 13.852-30.844 22.086-49.801 22.949-4.7695 0.32031-8.4219 4.3711-8.25 9.1484 0.24219 4.6289 4.0664 8.2578 8.6992 8.25z" fill="#a25554"/>
 <path d="m883.12 330.61c30.285 30.285 30.285 79.387 0 109.67s-79.387 30.285-109.67 0c-30.285-30.285-30.285-79.387 0-109.67 30.285-30.285 79.387-30.285 109.67 0z" fill="#a25554"/>
 <path d="m852 501.9c-1.4453-1.3281-3.0039-2.5312-4.6484-3.5977l-5.7031-3.3008h-1.9492c-1.332-0.37109-2.6836-0.67188-4.0508-0.89844h-8.1016 0.003906c-1.9492-0.14844-3.9023-0.14844-5.8516 0h-1.6484l-4.0508 1.3516-1.9492 0.89844-4.1992 2.3984-1.0508 0.75c-1.5508 1.0703-3.0078 2.2773-4.3516 3.6016l-71.102 71.102-79.648-82.5v-0.003906c-8.6289-9.0547-21.43-12.82-33.59-9.8789-12.156 2.9453-21.82 12.152-25.348 24.152-3.5312 12-0.39062 24.969 8.2383 34.027l104.25 108c6.3984 6.7656 15.289 10.613 24.602 10.648 9.3203 0.027343 18.273-3.6406 24.898-10.199l36.898-36.75v141.9l-76.348 273c-2.5273 8.8711-1.3984 18.387 3.1406 26.422 4.5391 8.0312 12.105 13.91 21.008 16.328 3.0195 0.89844 6.1523 1.3516 9.3008 1.3477 7.5938-0.019531 14.973-2.5195 21.012-7.125 6.043-4.6016 10.41-11.055 12.438-18.375l37.949-136.2c6.2578 21.387 16.43 41.426 30 59.102l77.852 98.547c7.7422 9.4844 19.898 14.199 32.008 12.422 12.113-1.7773 22.398-9.7852 27.09-21.094 4.6914-11.305 3.0977-24.246-4.1992-34.078l-76.949-98.551v0.003906c-10.633-13.645-17.836-29.645-21-46.652l-23.102-124.05 0.003906-147.45 60.75 56.699-35.25 67.051c-4.2539 8.2148-5.0586 17.781-2.2461 26.59 2.8164 8.8086 9.0195 16.133 17.246 20.359 4.9961 2.6133 10.559 3.9492 16.199 3.9023 6.3125-0.011719 12.508-1.7344 17.922-4.9805 5.4141-3.25 9.8477-7.9023 12.828-13.469l47.551-90c3.5586-6.7539 4.8125-14.484 3.5664-22.012-1.2461-7.5312-4.9219-14.445-10.469-19.691z" fill="#a25554"/>
 <path d="m1101.6 631.2c-8.832-32.641-29.957-60.598-58.953-78-1.9609-1.1992-4.3242-1.5547-6.5547-0.99219-2.2305 0.56641-4.1367 2.0039-5.293 3.9922-1.2422 1.9531-1.625 4.332-1.0586 6.5742 0.57031 2.2422 2.0352 4.1523 4.0586 5.2773 25.07 15.148 43.336 39.379 51 67.648 1.0742 3.7461 4.5039 6.3164 8.3984 6.3008 0.74219 0.14453 1.5078 0.14453 2.25 0 2.2852-0.55859 4.2383-2.0312 5.4023-4.0742 1.1641-2.043 1.4336-4.4766 0.75-6.7266z" fill="#a25554"/>
 <path d="m1036.5 615c-4.4883-6.0117-10.09-11.105-16.5-15-4.1406-2.4453-9.4805-1.0664-11.926 3.0742-2.4414 4.1445-1.0664 9.4805 3.0742 11.926 4.6875 2.8789 8.8047 6.5898 12.152 10.949 3.418 4.4453 5.8711 9.5547 7.1992 15 1.0625 3.7734 4.4805 6.3984 8.3984 6.4492h2.25c2.25-0.55859 4.1758-2.0117 5.3359-4.0195 1.1602-2.0078 1.4531-4.3984 0.81641-6.6289-2.0547-7.918-5.7344-15.324-10.801-21.75z" fill="#a25554"/>
 <path d="m707.25 250.05h-28.352c-3.582-0.0625-6.8398 2.082-8.1992 5.3984-1.3594 3.3164-0.54688 7.1289 2.0508 9.6016l49.199 49.199c1.6484 1.6055 3.8516 2.5156 6.1523 2.5508 2.3047 0 4.5195-0.91797 6.1484-2.5508 1.668-1.6094 2.6094-3.832 2.6094-6.1484 0-2.3203-0.94141-4.5391-2.6094-6.1523l-34.352-34.352h28.199l0.003906 0.003906c3.5469 0.019532 6.7539-2.1172 8.0977-5.4023 1.3594-3.25 0.58594-7.0039-1.9492-9.4492l-49.199-49.199c-3.4219-3.2578-8.8125-3.1914-12.152 0.14844-3.3398 3.3398-3.4062 8.7305-0.14844 12.152z" fill="#a25554"/>
 <path d="m921.15 257.85 15 7.0508v-0.003906c5.1094 2.4414 10.691 3.7227 16.352 3.75 4.25-0.003907 8.4648-0.76563 12.449-2.25 9.4844-3.2422 17.27-10.16 21.602-19.199l6.4492-13.648c1.7891-2.0156 2.543-4.7422 2.0469-7.3906-0.5-2.6484-2.1992-4.9141-4.5977-6.1406-2.3984-1.2227-5.2305-1.2656-7.668-0.11328-2.4375 1.1484-4.2031 3.3633-4.7812 5.9922l-6.6016 13.801c-2.3281 4.8672-6.5078 8.6055-11.605 10.379-5.0977 1.7734-10.691 1.4414-15.543-0.92969l-15-6.8984c-3.8398-0.75391-7.707 1.1484-9.457 4.6445-1.75 3.5-0.94922 7.7383 1.957 10.355z" fill="#a25554"/>
 <path d="m1015.2 303 15 7.0508c1.1641 0.58203 2.4492 0.89062 3.75 0.89844 3.3242-0.054688 6.3359-1.9648 7.8008-4.9492 1.0234-2.0625 1.1719-4.4531 0.41016-6.6289-0.76562-2.1719-2.3711-3.9492-4.4609-4.9219l-15-7.0508c-4.8945-2.3281-8.6328-6.5547-10.348-11.699-1.625-4.918-1.3555-10.266 0.75-15l6.6016-13.648h-0.003906c0.75391-3.8398-1.1484-7.707-4.6445-9.457-3.5-1.75-7.7344-0.94922-10.355 1.957l-6.6016 13.648h0.003906c-4.4141 9.0195-5.0234 19.43-1.6992 28.906 3.3281 9.4727 10.316 17.215 19.398 21.496z" fill="#a25554"/>
 <path d="m1030.2 330c1.0312-2.0859 1.1797-4.4961 0.42188-6.6953-0.76172-2.1992-2.3711-4-4.4727-5.0039l-15-6.8984v-0.003906c-9.0156-4.4102-19.43-5.0195-28.902-1.6953-9.4727 3.3281-17.215 10.316-21.496 19.398l-6.6016 13.648c-1.8164 2.0195-2.5898 4.7695-2.0859 7.4414 0.50781 2.668 2.2305 4.9492 4.6602 6.1641 2.4297 1.2148 5.2891 1.2266 7.7266 0.027343 2.4375-1.1992 4.1758-3.4648 4.6992-6.1328l6.6016-13.648c2.3359-4.9062 6.5273-8.6797 11.652-10.48 5.125-1.8008 10.758-1.4844 15.648 0.87891l15 7.0508c2.1289 1.1758 4.6523 1.4102 6.9648 0.64062 2.3086-0.76953 4.1875-2.4727 5.1836-4.6914z" fill="#a25554"/>
 <path d="m909.9 281.1 15 7.0508v-0.003906c4.7383 2.3867 8.3516 6.5352 10.062 11.559 1.7109 5.0195 1.3828 10.512-0.91016 15.293l-6.6016 13.648c-1.9492 4.3984-0.10156 9.5508 4.1992 11.703 1.1719 0.55078 2.4609 0.80859 3.75 0.75 3.293-0.027343 6.2969-1.875 7.8008-4.8008l6.6016-13.801c4.2461-9.043 4.7734-19.395 1.4609-28.82-3.3125-9.4297-10.191-17.176-19.16-21.578l-15-6.8984v-0.003906c-2.0156-1.7891-4.7461-2.543-7.3906-2.043-2.6484 0.49609-4.9141 2.1953-6.1406 4.5938-1.2227 2.4023-1.2656 5.2344-0.11719 7.668 1.1523 2.4375 3.3672 4.2031 5.9961 4.7812z" fill="#a25554"/>
 <path d="m790.65 223.05c-5.3594 0.69922-9.168 5.5781-8.5469 10.949 0.625 5.3398 5.457 9.1641 10.797 8.5508 5.3633-0.70312 9.1719-5.5781 8.5508-10.949-0.625-5.3438-5.457-9.168-10.801-8.5508z" fill="#a25554"/>
 <path d="m785.1 215.7 9.8984-1.1992v-46.949l-1.8008-15c-0.30078-2.793-1.707-5.3477-3.9062-7.0977-2.1992-1.7461-5.0039-2.5391-7.793-2.2031-2.8047 0.33594-5.3594 1.7773-7.1055 4-1.7422 2.2227-2.5312 5.0469-2.1953 7.8516l1.6484 15z" fill="#a25554"/>
 <path d="m835.2 157.8c2.0312-3.957 6.0586-6.4883 10.5-6.6016 4.0625-0.92188 8.3203 0.19922 11.402 3 2.3242 2.457 3.7539 5.6289 4.0469 9 0.42187 2.9062-0.16016 5.8711-1.6484 8.4023-0.90625 1.6719-2.0703 3.1914-3.4492 4.5l-4.5 4.3516v-0.003906c-3.4141 3.0586-6.082 6.8555-7.8008 11.102-0.75 5.2734-0.75 10.625 0 15.898l18.301-2.1016v0.003906c-0.38672-2.6875-0.38672-5.4141 0-8.1016 0.65234-2.9258 2.168-5.5938 4.3477-7.6484l4.2031-4.2031c3.4258-3.0234 6.3633-6.5664 8.6992-10.5 2.5352-4.5625 3.4883-9.8359 2.6992-15-0.54297-8.4727-5.2656-16.121-12.602-20.398-8.082-4.3086-17.344-5.8867-26.398-4.5-6.9297 0.54297-13.551 3.0977-19.051 7.3516-4.6719 3.8594-7.9844 9.1172-9.4492 15-0.58984 3.082 0.32031 6.2656 2.4492 8.5703 2.1289 2.3086 5.2305 3.4688 8.3516 3.1289 4.2188-0.57031 7.5977-3.7695 8.3984-7.9492 0.44922-0.60156 0.90234-1.9531 1.5-3.3008z" fill="#a25554"/>
 <path d="m855 215.55c-2.5938 0.28516-4.9609 1.5977-6.5781 3.6445-1.6172 2.0469-2.3477 4.6562-2.0273 7.2461 0.32031 2.5898 1.668 4.9414 3.7344 6.5312s4.6875 2.2812 7.2695 1.9258c5.3867-0.62109 9.2461-5.4883 8.625-10.875-0.62109-5.3828-5.4883-9.2461-10.875-8.625z" fill="#a25554"/>
 <path d="m150 337.95 9.75-5.3984 6.6016 27.449 11.852-6.6016-6.8984-27.301 12.148-6.6016-3.4531-11.547-12.148 6.75-4.9492-20.102 12-6.6016-2.8516-11.398-12 6.75-6.8984-27.602-11.699 6.6016 6.8984 27.449-9.75 5.3984-6.8984-27.449-11.703 6.4531 6.75 27.602-12 6.75 2.8516 11.25 12-6.6016 5.3984 19.949-12 6.75 2.8516 11.25 12.148-6.1484 6.75 27.301 11.852-6.6016zm-7.8008-31.352 9.6016-5.3984 5.1016 19.949-9.75 5.3984z" fill="#a25554"/>
 <path d="m219.6 307.8c-4.1055 2.9062-5.3789 8.4258-2.9609 12.836 2.4141 4.4062 7.75 6.3047 12.41 4.4141 2.3008-1.2031 4.0039-3.2969 4.7148-5.793 0.70703-2.4961 0.35938-5.1758-0.96484-7.4062-2.6328-4.7344-8.582-6.4727-13.352-3.9023z" fill="#a25554"/>
 <path d="m211.5 303 8.8516-4.8008-17.852-43.199-7.5-13.199c-1.3828-2.5977-3.7812-4.5078-6.6211-5.2734-2.8438-0.76953-5.875-0.32422-8.3789 1.2227-2.5977 1.3828-4.5078 3.7812-5.2734 6.6211-0.76562 2.8438-0.32422 5.875 1.2227 8.3789l7.1992 12.898z" fill="#a25554"/>
</svg>
