<?xml version="1.0" encoding="UTF-8"?>
<svg width="1200pt" height="1200pt" version="1.1" viewBox="0 0 1200 1200" xmlns="http://www.w3.org/2000/svg">
 <path d="m714.89 300.29c8.0273 0 13.59-1.3203 14.137-1.457 5.0898-1.2578 8.1797-6.3867 6.9414-11.48-1.2344-5.0938-6.375-8.2266-11.473-7.0195-0.96875 0.23047-23.895 5.418-40.496-11.004-3.7422-3.6992-9.7695-3.668-13.469 0.070313-3.6992 3.7422-3.668 9.7695 0.070312 13.469 14.605 14.441 32.23 17.422 44.289 17.422z" fill="#a25554"/>
 <path d="m471.56 298.83c0.55078 0.13672 6.1094 1.457 14.137 1.457 12.059 0 29.688-2.9805 44.285-17.422 3.7383-3.6992 3.7695-9.7305 0.070313-13.469-3.6992-3.7344-9.7266-3.7695-13.469-0.070312-16.559 16.383-39.418 11.258-40.492 11.008-5.0938-1.2383-10.23 1.875-11.492 6.9648-1.2617 5.1055 1.8516 10.27 6.9609 11.531z" fill="#a25554"/>
 <path d="m920.93 455.17c14.426-159.12-14.688-279.68-86.52-358.32-79.844-87.41-190.34-96.848-234.36-96.848-63.246 0.019531-111.46 24.75-147.21 75.555-30.688-2.8477-60.551 8.625-86.727 33.422-66.57 63.066-101.73 202.22-87.48 346.27 3.7227 37.672 12.535 76.254 26.934 117.96 19.363 56.094 11.402 112.37 4.3789 162.02-9.0039 63.664-17.516 123.91 33.797 167.5-3.3398 8.6289-6.2773 17.48-8.7695 26.539-20.176 73.262-10.203 148.96 27.215 209.34v51.875c0 5.2578 4.2656 9.5234 9.5234 9.5234 5.2578 0 9.5234-4.2656 9.5234-9.5234v-21.68c0.93359 1.1094 1.8945 2.1992 2.875 3.2656 16.613 18.027 39.188 27.918 62.059 27.918 6.6992 0 13.418-0.84766 20.02-2.5898 32.867-8.6562 57.16-36.938 66.637-77.551 13.289-55.887 35.797-163.01 52.785-245.25 4.7539 1.0547 9.6562 1.6055 14.668 1.6055s9.9102-0.55078 14.668-1.6055c16.988 82.242 39.492 189.35 52.777 245.21 9.4883 40.652 33.781 68.934 66.645 77.59 6.6055 1.7383 13.328 2.5898 20.02 2.5859 22.871 0 45.453-9.8906 62.059-27.918 0.98438-1.0703 1.9453-2.1602 2.8789-3.2695l0.003906 21.688c0 5.2578 4.2656 9.5234 9.5234 9.5234 5.2578 0 9.5234-4.2656 9.5234-9.5234v-51.203c0-0.19922-0.046875-0.38281-0.058593-0.57813 37.465-60.387 47.461-136.13 27.273-209.43-2.5547-9.2852-5.5703-18.352-9.0156-27.188 50.473-43.535 42.004-103.49 33.043-166.85-7.0234-49.652-14.988-105.93 4.3789-162.02 14.82-42.922 23.637-81.531 26.941-118.03zm-551.82 565.23c-7.5 21.238-11.797 41.668-12.953 60.727-15.309-45.742-16.582-96.844-2.8242-146.81 16.77-60.906 54.547-111.97 105.38-143.61-34.363 81.137-82.363 210.15-89.605 229.69zm145.18 95.07c-7.832 33.555-27.133 56.699-52.949 63.5-22.309 5.8828-46.543-1.7109-63.223-19.816-22.723-24.66-28.934-63.559-18.055-108.84 12.527 19.922 31.93 36 55.199 44.988 13.387 5.1719 27.211 7.7383 41.051 7.7383 14.41 0 28.836-2.7852 42.797-8.3008-1.7109 7.4922-3.3242 14.445-4.8203 20.734zm10.113-44.258c-26.375 14.398-55.438 16.691-82.277 6.3203-25.582-9.8828-45.508-29.871-53.926-53.828 27.746-74.684 99.32-262.43 116.22-284.96 2.3867-3.1797 2.543-7.5117 0.39453-10.859-29.461-45.883-28.172-74.391-25.605-131.18 0.78125-17.289 1.668-36.883 1.7617-60.016 0.023437-5.5078 2.1445-9.3203 5.9766-10.727 2.5234-0.92578 5.9766-0.76562 9.1602 1.1289-1.1562 7.3047-0.50781 16.051 1.9922 26.215 1.8008 8.1719 35.281 157.09 90.84 210.02-5.4336 26.828-40.941 201.75-64.539 307.89zm-147.92-694.85c18.641-16.34 94.27-89.254 112.5-210.99 65.016 64.688 123.3 75.008 175.35 84.188 63.422 11.188 113.58 20.051 159.99 124.33-7.2656 71.312-22.816 132.52-41.738 164.05-9.9609 16.602-25.145 34.227-42.867 50.027-0.61328-15.141-1.1641-31.973-1.0898-51.281 0.039062-10.301-4.1172-16.449-7.6172-19.789-4.625-4.4219-11.125-6.7773-17.844-6.4375-2.6484 0.13281-5.9805 0.65625-9.6211 2.0273-3.4648-15.602-15.188-19.77-19.652-20.797-6.7695-1.5508-14.012-0.41016-20.125 2.5547l-7.207-23.539c-0.070313-0.23047-0.14844-0.45313-0.23438-0.67969-7.0273-17.973-24.496-23.148-37.371-18.898-2.0039 0.66016-3.9375 1.5859-5.7656 2.7109-9.5039-13.609-24.145-17.953-36.211-14.535-10.691 3.0234-20.383 12.758-21.844 28.172-5.0586-0.26172-10.309 0.5625-14.828 2.3945-5.332 2.1562-20.316 10.305-18.242 32.77-6.918 0.67188-12.941 3.1992-17.434 7.4102-7.5-4.0156-16.32-4.8828-24.258-1.9648-11.328 4.1602-18.398 15.094-18.453 28.527-0.078125 19.215-0.71484 36.02-1.3789 51.098-17.602-15.734-32.68-33.27-42.578-49.766-18.703-31.18-34.113-91.332-41.484-161.59zm2.9688 118.07c-17.516-3.4062-33.855-18.215-41.449-38.875-10.566-28.746-1.4609-59.461 20.262-70.512 4.6758 41.527 11.973 78.922 21.188 109.39zm462.84-109.39c21.723 11.055 30.828 41.766 20.262 70.512-7.5938 20.656-23.93 35.465-41.449 38.875 9.2148-30.465 16.512-67.859 21.188-109.39zm-157.18 142.52c-2.5234 3.5898-4.9258 7.9375-7.1055 13.145l-8.4961-27.742c2.0781-1.8164 6.3203-3.5859 10.133-2.7148 6.375 1.4648 6.2148 11.238 5.4688 17.312zm-84.832 329.57c-3.7109 0-7.3164-0.44922-10.812-1.2461 4.1289-20.059 7.8164-38.07 10.812-52.746 2.9961 14.676 6.6836 32.691 10.812 52.746-3.4922 0.79297-7.0977 1.2461-10.812 1.2461zm10.633-97.305c-0.44922-2.2227-1.6758-4.2148-3.4648-5.6133-54.551-42.715-90.41-203.51-90.766-205.13-0.019531-0.082031-0.039063-0.16016-0.058594-0.24219-2.957-11.98-2.707-20.965 0.69141-24.652 2.2969-2.4883 6.418-2.8359 9.4492-2.707l26.211 78.535c1.332 3.9883 5.0469 6.5117 9.0312 6.5078 1 0 2.0195-0.15625 3.0195-0.49219 4.9922-1.668 7.6836-7.0586 6.0156-12.051l-28.039-84.008c-2.332-7.2461-3.8789-16.793 1.9922-21.109 4.0703-2.9922 9.9648-2.7422 12.398-1.8008l30.777 101.04c1.25 4.1055 5.0234 6.75 9.1055 6.75 0.91797 0 1.8516-0.13281 2.7773-0.41406 5.0273-1.5352 7.8672-6.8555 6.332-11.887l-31.387-103.04c-2.7148-11.312 0.082031-19.895 7.1562-21.895 6.1992-1.7539 14.328 2.2852 18.645 13.199-1.5 5.8242-1.5156 12.762 0.65625 20.754l25.922 91.527c1.1875 4.1914 5.0078 6.9297 9.1602 6.9297 0.85547 0 1.7344-0.11719 2.6016-0.36328 5.0625-1.4336 8-6.6992 6.5703-11.758l-25.895-91.43c-2.4336-8.9531-0.52344-15.41 5.1133-17.27 4.6133-1.5312 10.691 0.5625 13.539 7.4492l30.766 100.46c-1.1172 9.4219-1.7656 20.117-1.7656 32.363 0 5.2578 4.2656 9.5234 9.5234 9.5234 5.2578 0 9.5234-4.2656 9.5234-9.5234 0-62.078 17.344-79.496 27.594-80 0.70312-0.035156 2.5156 0.007812 3.7422 1.1836 1.4414 1.3789 1.7344 3.9922 1.7305 5.9453-0.09375 24.355 0.77734 44.754 1.5508 62.754 2.3047 53.773 3.5742 83.395-25.395 128.52-2.1484 3.3477-1.9922 7.6797 0.39453 10.859 16.91 22.547 88.559 210.5 116.22 284.96-8.418 23.957-28.344 43.945-53.926 53.828-26.84 10.367-55.906 8.0781-82.281-6.3203-25.445-114.5-64.781-309.14-65.234-311.38zm191.53 399.32c-16.68 18.102-40.898 25.703-63.223 19.816-25.82-6.8008-45.117-29.949-52.957-63.539-1.4922-6.2812-3.1055-13.223-4.8125-20.695 13.961 5.5195 28.387 8.3008 42.797 8.3008 13.84 0 27.664-2.5664 41.051-7.7383 23.266-8.9844 42.664-25.062 55.191-44.98 10.879 45.332 4.6602 84.191-18.047 108.84zm41.949-78.004c-1.1602-19.102-5.4688-39.582-12.996-60.895-7.2109-19.438-55.199-148.42-89.555-229.55 50.836 31.637 88.613 82.703 105.38 143.61 13.766 49.98 12.488 101.09-2.832 146.84zm26.367-343.26c8.5703 60.594 15.445 109.34-22.191 145.7-25.41-53.258-67.148-96.18-119.19-121.49-5.6367-12.469-10.551-22.531-14.359-29.117 26.383-43.285 27.473-74.77 25.707-120.92 24.074-19.316 45.133-42.551 58.199-64.324 5.5391-9.2305 10.754-20.5 15.566-33.504 28.062-0.39844 54.461-20.863 65.941-52.102 14.605-39.723-0.78125-82.887-34.301-96.234-1.6758-0.66797-3.4375-1.2461-5.3008-1.7578-50.367-111.66-110.04-122.2-173.18-133.34-54.797-9.6641-116.91-20.617-186.56-101.95-3.4219-3.9961-9.4336-4.4609-13.43-1.0391-3.9961 3.4219-4.4609 9.4336-1.0391 13.43 1.8164 2.1211 3.6211 4.1602 5.4297 6.1914-13.352 128.05-97.113 205.05-109.88 216.09-2.8008 0.64453-5.3594 1.4297-7.7539 2.3828-33.516 13.344-48.906 56.512-34.297 96.23 11.484 31.242 37.879 51.703 65.941 52.102 4.8125 13.004 10.027 24.277 15.566 33.504 12.996 21.66 33.93 44.793 57.859 64.051-1.793 46.008-0.38281 77.852 26.047 121.2-3.8125 6.5859-8.7227 16.648-14.359 29.117-52.258 25.418-94.121 68.59-119.5 122.16-38.41-36.43-31.5-85.434-22.883-146.36 7.3281-51.785 15.629-110.48-5.2305-170.91-13.906-40.281-22.406-77.449-25.984-113.62-13.691-138.5 19.113-271.34 81.633-330.57 23.793-22.539 49.605-31.859 76.762-27.68 3.6719 0.56641 7.3164-1.0469 9.375-4.1328 32.262-48.395 76.324-71.93 134.93-71.949 41.273 0 145.34 8.832 220.07 90.645 68.078 74.527 95.535 190.18 81.613 343.75-3.168 34.949-11.664 72.09-25.977 113.54-20.859 60.43-12.555 119.12-5.2305 170.91z" fill="#a25554"/>
 <path d="m695.5 409.51c15.57 0 28.246-12.52 28.543-28.02 11.781-1.4023 22.426-7.8477 30.82-18.887 3.1875-4.1875 2.3711-10.16-1.8164-13.344-4.1875-3.1836-10.164-2.3672-13.344 1.8164-5.9727 7.8555-12.766 11.699-20.648 11.66 11.758-8.6016 16.031-19.082 16.27-19.691 1.9141-4.8984-0.48437-10.473-5.3828-12.391-4.9023-1.9141-10.402 0.45312-12.316 5.3516-0.20312 0.48438-5.0195 11.508-19.812 16.48-0.76562-0.0625-1.5273-0.11719-2.3086-0.11719-15.754 0-28.57 12.816-28.57 28.57-0.007813 15.758 12.809 28.57 28.566 28.57zm0-38.094c5.2539 0 9.5234 4.2695 9.5234 9.5234s-4.2695 9.5234-9.5234 9.5234-9.5234-4.2695-9.5234-9.5234c0-5.25 4.2695-9.5234 9.5234-9.5234z" fill="#a25554"/>
 <path d="m476.48 381.49c0.29688 15.496 12.973 28.02 28.543 28.02 15.754 0 28.57-12.816 28.57-28.57s-12.816-28.57-28.57-28.57c-0.77734 0-1.5469 0.054687-2.3086 0.11719-14.668-4.9297-19.527-15.805-19.809-16.461-1.9492-4.8398-7.4297-7.2148-12.301-5.3125-4.8984 1.9141-7.3164 7.4375-5.4062 12.336 0.23828 0.60938 4.5117 11.09 16.27 19.691-7.875 0.035156-14.68-3.8086-20.648-11.66-3.1836-4.1875-9.1602-5-13.344-1.8125-4.1875 3.1836-5 9.1602-1.8125 13.344 8.3945 11.031 19.039 17.473 30.816 18.879zm28.547-10.078c5.2539 0 9.5234 4.2695 9.5234 9.5234s-4.2695 9.5234-9.5234 9.5234-9.5234-4.2695-9.5234-9.5234c0-5.25 4.2695-9.5234 9.5234-9.5234z" fill="#a25554"/>
 <path d="m428.85 476.19c1.8125 0 3.6484-0.51953 5.2734-1.6016 4.375-2.918 5.5586-8.832 2.6406-13.207l-19.047-28.57c-2.918-4.375-8.832-5.5625-13.207-2.6406-4.375 2.918-5.5586 8.832-2.6406 13.207l19.047 28.57c1.8359 2.7539 4.8555 4.2422 7.9336 4.2422z" fill="#a25554"/>
 <path d="m459.01 471.95c1.8359 2.7539 4.8555 4.2422 7.9336 4.2422 1.8125 0 3.6484-0.51953 5.2734-1.6016 4.375-2.918 5.5586-8.832 2.6406-13.207l-19.047-28.57c-2.918-4.375-8.832-5.5625-13.207-2.6406-4.375 2.918-5.5586 8.832-2.6406 13.207z" fill="#a25554"/>
 <path d="m493.91 432.81c-2.918-4.375-8.8281-5.5625-13.207-2.6406-4.375 2.918-5.5586 8.832-2.6406 13.207l19.047 28.57c1.8359 2.7539 4.8555 4.2422 7.9336 4.2422 1.8125 0 3.6484-0.51953 5.2734-1.6016 4.375-2.918 5.5586-8.832 2.6406-13.207z" fill="#a25554"/>
 <path d="m693.91 432.81c-2.918-4.375-8.832-5.5625-13.207-2.6406-4.375 2.918-5.5586 8.832-2.6406 13.207l19.047 28.57c1.8359 2.7539 4.8555 4.2422 7.9336 4.2422 1.8125 0 3.6484-0.51953 5.2734-1.6016 4.375-2.918 5.5586-8.832 2.6406-13.207z" fill="#a25554"/>
 <path d="m732.01 432.81c-2.918-4.375-8.8281-5.5625-13.207-2.6406-4.375 2.918-5.5586 8.832-2.6406 13.207l19.047 28.57c1.8359 2.7539 4.8555 4.2422 7.9336 4.2422 1.8125 0 3.6484-0.51953 5.2734-1.6016 4.375-2.918 5.5586-8.832 2.6406-13.207z" fill="#a25554"/>
 <path d="m754.25 443.38 19.047 28.57c1.8359 2.7539 4.8555 4.2422 7.9336 4.2422 1.8125 0 3.6484-0.51953 5.2734-1.6016 4.375-2.918 5.5586-8.832 2.6406-13.207l-19.047-28.57c-2.918-4.375-8.832-5.5625-13.207-2.6406-4.3711 2.918-5.5547 8.832-2.6406 13.207z" fill="#a25554"/>
</svg>
