<?xml version="1.0" encoding="UTF-8"?>
<svg width="1200pt" height="1200pt" version="1.1" viewBox="0 0 1200 1200" xmlns="http://www.w3.org/2000/svg">
 <path d="m299.9 962.44-26.719-156.37 39.422-30c5.25-4.0312 6.2812-11.531 2.25-16.828-4.0312-5.25-11.531-6.2812-16.828-2.25l-45.188 34.406c-3.5625 2.7188-5.2969 7.1719-4.5469 11.578l15.234 89.203-42.281 22.266-44.859-136.4c-3.7031-11.203 0.84375-23.25 10.969-29.25l71.203-42.469c5.7188-3.375 7.5469-10.781 4.1719-16.453-3.375-5.7188-10.781-7.5938-16.453-4.1719l-71.203 42.469c-19.875 11.859-28.688 35.438-21.469 57.375l65.531 199.22c1.6875 5.0625 6.3281 8.25 11.391 8.25 1.0781 0 2.2031-0.14062 3.2812-0.46875l57.562-16.5c5.9062-1.6875 9.5625-7.5 8.5312-13.547zm-61.594 3.7969-9.4219-28.688 38.906-20.484 6.6562 38.859-36.141 10.359zm535.82-62.766c-6.5156-1.4062-12.844 2.7188-14.297 9.1875l-31.125 143.11h-47.812l24.562-121.74c0.60937-3 0.046874-6.1406-1.5938-8.7656l-51.656-82.312c-3.5156-5.625-10.922-7.3125-16.547-3.7969s-7.3125 10.922-3.7969 16.547l49.078 78.281-35.625 176.58c-0.70312 3.5625 0.1875 7.2188 2.4844 9.9844 2.25 2.7656 5.6719 4.4062 9.2812 4.4062h71.438c5.625 0 10.5-3.9375 11.719-9.4688l43.031-197.76c1.4062-6.4688-2.7188-12.844-9.1875-14.297zm-102.38 197.48 4.2656-21.188h47.438l-4.5938 21.188zm439.4-351.37c-0.375-5.4375-4.2656-9.8906-9.5625-10.969-5.3438-1.0312-10.688 1.5469-13.125 6.375-8.8125 17.531-21.562 27.094-34.594 26.062-11.062-0.84375-20.578-8.7656-24.375-20.344-6.8438-19.781-3.0469-40.969 0.9375-63.375 3.9375-22.078 7.9688-44.906 2.3438-67.922-10.125-47.297-44.906-82.781-90.75-92.484-44.766-9.5156-89.578 6.8906-119.34 42.562-41.203-26.156-103.5-32.391-181.92-17.812-24.047 4.5-46.5 5.3438-67.125 2.8594 7.1719-14.859 12.328-32.672 6.75-50.062-4.8281-15-16.453-27.141-35.438-36.938 6.9844-23.438 6.7969-42.047-0.51562-56.625-5.1562-10.219-13.688-18.328-25.547-24.094 6.9844-16.969 7.2188-33.469 0.28125-46.547-6.75-12.844-19.781-21.516-37.312-25.125 3.2812-24.609-1.5938-43.734-14.531-57-15-15.375-39.984-21-72.75-16.594-3.0938-24.75-12.234-46.969-27.469-67.125-3.6562-4.8281-10.312-6.1875-15.562-3.1406-28.406 16.406-48.328 37.359-60.328 63.375l-158.58-170.81c-3.8438-4.1719-10.125-5.0625-15-2.1094-4.875 2.9531-6.9844 8.9062-5.1094 14.25l83.859 237.74c-13.875 12.75-26.484 26.719-36.656 40.594-12.141 4.4062-48.188 19.547-63.844 49.172-8.3438 15.75-9.7031 32.906-4.0781 50.953 5.1562 16.547 16.078 31.078 30.797 40.922 47.203 31.594 96.047 0 119.53-25.312 15.328 3.7031 31.641 6.4219 48.234 4.8281-2.3438 12.844-4.8281 25.688-7.3594 38.25-19.5 96.984-39.562 197.16 66.703 261.05l-37.922 281.44-18.938 69.188c-0.98438 3.6094-0.23438 7.4531 2.0625 10.453 2.25 3 5.8125 4.7344 9.5625 4.7344h63.234c5.4844 0 10.312-3.75 11.625-9.0938l78.703-311.95c32.625 9.75 66.891 14.766 101.25 14.766 41.812 0 83.625-7.2656 122.39-21.516 26.438 34.406 56.719 60.328 92.297 79.359 25.5 13.594 43.5 38.906 49.359 69.469 6.1875 32.109 8.8594 61.219 7.9688 86.531l-17.906 62.062c-1.0312 3.6562-0.32812 7.5469 1.9688 10.547 2.25 3 5.8125 4.7812 9.5625 4.7812h81.75c5.625 0 10.547-3.9375 11.719-9.4688l13.969-64.547c0.28125-1.2188 0.32812-2.4375 0.23438-3.6562l-16.125-176.44c-0.28125-3.0938-1.7344-5.9062-4.0781-7.9688-25.688-22.359-45.797-61.266-47.859-92.531-0.75-11.344 2.9062-24.047 6.75-37.5 3.4219-12 6.9375-24.375 7.5938-36.75 0.9375-19.266-0.51562-36.844-4.3125-52.688 9.0938-1.9219 17.156-0.1875 24 5.1562 12.609 9.8438 18.984 30.703 15.469 51.375-1.125 10.125-3.5156 20.625-6.0469 31.734-6.8438 30-14.531 63.984 4.2656 95.391 20.156 31.406 57.562 50.016 95.297 50.016 11.625 0 23.25-1.7812 34.406-5.4375 47.25-15.562 73.125-61.172 69.141-122.06zm-661.03-474.71c9.0938 9.2812 11.062 25.406 5.9062 47.859-0.79688 3.4219 0 7.0312 2.1094 9.8906 2.1562 2.8125 5.3906 4.5938 8.9062 4.7812 15.562 0.89062 26.531 5.9062 30.844 14.062 4.5938 8.6719 2.3906 21.656-6 35.531-1.9219 3.1875-2.25 7.0781-0.9375 10.5 1.3125 3.4688 4.2188 6.0938 7.7812 7.1719 12.422 3.7031 20.344 9.2812 24.188 16.969 5.25 10.453 3.9375 26.203-4.0781 48.094-2.2031 6 0.75 12.703 6.6562 15.188 17.906 7.5469 28.688 16.547 31.969 26.812 3.0938 9.6562 0.42188 21.844-8.3906 37.969-13.688-3.75-25.359-8.8125-35.344-15.469-35.906-31.219-50.625-83.156-64.875-133.4-13.172-46.453-25.688-90.516-55.219-111.75 1.1719-8.0625 1.6875-15.844 1.875-23.484 25.688-3.8438 44.906-0.65625 54.562 9.2344zm-269.34-77.625 5.1094-7.7812c4.2188-6.4688 8.4375-12.938 12.656-19.406l13.453 14.484-22.828 36.375-8.3438-23.719zm48.094 5.5312 20.906 22.5-38.438 58.594-12-34.031 29.578-47.062zm37.734 40.641 15.75 16.969c-0.42188 1.6406-0.9375 3.2344-1.2656 4.875-12.516 2.3906-25.547 7.6406-38.438 14.719zm-84.938-91.5c-3.6562 5.625-7.3125 11.25-10.969 16.828l-16.312-46.219zm138.52 964.08 11.953-43.734 35.25 7.8281-9.0469 35.906zm520.69-15.047 6.4219-22.219h54.562l-4.8281 22.219zm52.172-223.26 15.562 169.97-1.5469 7.0781h-52.828l0.5625-1.9219c0.28125-0.9375 0.42188-1.875 0.46875-2.8125 1.125-27.469-1.6875-58.922-8.2969-93.469-7.2656-37.688-29.719-69.047-61.641-86.062-53.484-28.547-94.172-74.531-128.11-144.66-2.9062-5.9531-10.031-8.4375-16.031-5.5781-5.9531 2.9062-8.4375 10.078-5.5781 16.031 9.8906 20.391 20.391 38.719 31.547 55.5-64.641 22.266-137.63 23.766-203.16 3.9375l5.8125-23.016c1.5938-6.4219-2.25-12.938-8.7188-14.578-6.4219-1.5938-12.938 2.25-14.578 8.7188l-73.172 290.02-36.281-8.0625 44.812-332.29c0.89062-6.5625-3.75-12.609-10.312-13.5-6.7031-0.84375-12.609 3.75-13.5 10.312l-4.6875 34.734c-81.75-55.172-65.484-136.6-46.688-230.06 3.2344-16.078 6.4688-32.672 9.3281-49.312 8.9062-3.7031 17.766-9.0938 26.531-16.781 4.9688-4.3594 5.4375-11.953 1.0781-16.922s-12-5.4844-16.922-1.0781c-24.75 21.75-50.109 20.578-85.594 11.25-4.5938-1.2188-9.375 0.375-12.375 4.0312-1.875 2.3438-47.156 56.859-92.672 26.391-10.172-6.8438-17.719-16.781-21.234-28.125-3.7031-11.906-2.9531-22.547 2.3438-32.531 13.828-26.297 53.297-38.766 53.719-38.859 2.5312-0.79688 4.7344-2.3906 6.2812-4.5469 31.734-44.906 81.281-80.812 115.17-83.484 5.5312-0.46875 10.078-4.6406 10.922-10.125 5.2031-34.031 21.938-60.234 51-79.875 16.641 26.625 21.375 57.797 14.578 94.969-0.9375 5.1094 1.5 10.266 6.0938 12.75 26.062 14.016 38.156 56.672 50.953 101.81 14.578 51.375 31.078 109.59 72.844 145.5 0.32812 0.28125 0.70312 0.5625 1.0781 0.79688 14.438 9.8438 31.453 16.828 51.844 21.469 0.09375 0 0.1875 0.046875 0.23438 0.046875 0.1875 0.046875 0.32812 0.09375 0.46875 0.14062 27.984 6.1875 59.203 6.1406 92.859-0.09375 80.859-15.094 141.89-7.125 176.44 23.062 24.234 21.141 35.438 53.625 33.328 96.609-0.46875 9.6562-3.4688 20.203-6.6562 31.359-4.2188 14.859-8.625 30.188-7.5938 45.703 2.3906 36.094 23.719 78.844 52.406 105.75zm141.42-28.828c-36.891 12.188-81.75-3.0938-101.81-34.406-13.688-22.828-7.6406-49.359-1.2656-77.438 2.5312-11.25 5.2031-22.922 6.375-33.656 4.9219-28.781-4.875-58.359-24.422-73.641-13.266-10.359-29.484-13.359-46.594-9-6.1406-13.922-14.578-26.062-25.312-36.422 24.047-28.406 59.906-41.484 95.531-33.938 37.031 7.875 64.031 35.531 72.375 74.391 4.5 18.469 1.0781 37.828-2.5781 58.359-4.3594 24.469-8.8594 49.734-0.046875 75.188 6.75 20.719 24.562 35.109 45.328 36.656 12 0.9375 23.438-2.4375 33.516-9.5625-5.6719 31.875-23.391 54.328-51.094 63.422zm-721.18-494.44c0 9.7969-7.9688 17.766-17.766 17.766-9.7969 0-17.766-7.9688-17.766-17.766s7.9688-17.766 17.766-17.766c9.7969 0 17.766 7.9688 17.766 17.766z" fill="#4e2146"/>
</svg>
