<?xml version="1.0" encoding="UTF-8"?>
<svg width="1200pt" height="1200pt" version="1.1" viewBox="0 0 1200 1200" xmlns="http://www.w3.org/2000/svg">
 <path d="m120 1198.3s279.71-110.5 312.52-329.79c5.1797-41.438 18.992-88.059 34.531-132.95-31.078-119.14-98.418-215.83-229.64-288.34 110.5 24.172 226.19 82.879 267.62 189.93 70.793-160.57 160.57-302.16 160.57-302.16s-74.246 208.92-65.613 390.21c62.16-74.246 169.21-96.691 262.45-94.965-63.887 17.266-269.35 113.96-245.18 195.11 56.977 195.11 524.89 372.95 524.89 372.95-174.39-24.172-381.58-84.605-530.07-145.04-22.445 29.352-53.523 63.887-56.977 146.76-50.07-10.359-65.613-74.246-88.059-117.41 0 0-219.28 124.32-347.05 115.68z" fill="#4e2146" fill-rule="evenodd"/>
 <path d="m404.89 473.09c-55.25-46.617-74.246-139.86-34.531-195.11 1.7266 0 132.95 105.32 55.25 191.66-5.1797-24.172-1.7266-44.891-18.992-81.152 6.9062 34.531 1.7266 56.977-1.7266 84.605z" fill="#4e2146" fill-rule="evenodd"/>
 <path d="m266.76 435.11c-56.977-53.523-65.613-162.3-12.086-226.19 3.4531 0 139.86 122.59 37.984 221.01-15.539-37.984-17.266-67.34-22.445-117.41-6.9062 46.617 8.6328 88.059-3.4531 122.59z" fill="#4e2146" fill-rule="evenodd"/>
 <path d="m228.78 457.55c-58.703 25.898-139.86-3.4531-170.93-62.16 1.7266-3.4531 136.4-63.887 176.11 43.164-32.805 0-56.977-10.359-94.965-20.719 32.805 18.992 67.34 20.719 89.785 39.711z" fill="#4e2146" fill-rule="evenodd"/>
 <path d="m275.39 495.54c-60.434-24.172-143.31 5.1797-174.39 67.34 1.7266 3.4531 139.86 63.887 179.57-46.617-32.805 1.7266-56.977 10.359-96.691 22.445 34.531-18.992 69.066-22.445 91.512-43.164z" fill="#4e2146" fill-rule="evenodd"/>
 <path d="m679.43 362.59c55.25-55.25 162.3-60.434 226.19-5.1797 0 3.4531-127.77 136.4-222.73 31.078 37.984-15.539 69.066-13.812 117.41-18.992-46.617-6.9062-88.059 5.1797-120.86-6.9062z" fill="#4e2146" fill-rule="evenodd"/>
 <path d="m656.98 324.61c-24.172-60.434 6.9062-141.58 69.066-169.21 1.7266 0 58.703 136.4-50.07 174.39 1.7266-32.805 12.086-55.25 24.172-94.965-20.719 32.805-24.172 67.34-43.164 89.785z" fill="#4e2146" fill-rule="evenodd"/>
 <path d="m617.27 369.5c25.898-58.703-1.7266-143.31-62.16-176.11-1.7266 1.7266-67.34 138.13 41.438 181.3 0-34.531-8.6328-58.703-18.992-98.418 18.992 34.531 20.719 70.793 39.711 93.238z" fill="#4e2146" fill-rule="evenodd"/>
 <path d="m845.18 607.77c72.52-29.352 119.14-127.77 91.512-207.2-3.4531 0-174.39 67.34-112.23 195.11 27.625-29.352 37.984-58.703 62.16-101.87-10.359 44.891-39.711 79.426-41.438 113.96z" fill="#4e2146" fill-rule="evenodd"/>
 <path d="m874.53 644.03c44.891 43.164 131.22 44.891 181.3 0 0-1.7266-105.32-107.05-179.57-20.719 31.078 10.359 55.25 10.359 94.965 13.812-36.258 6.9062-70.793-3.4531-96.691 6.9062z" fill="#4e2146" fill-rule="evenodd"/>
 <path d="m815.83 663.02c65.613-1.7266 132.95 55.25 139.86 124.32-1.7266 1.7266-151.94 10.359-150.21-107.05 31.078 12.086 48.344 29.352 81.152 55.25-24.172-31.078-56.977-46.617-70.793-72.52z" fill="#4e2146" fill-rule="evenodd"/>
 <path d="m505.04 350.5c27.625-55.25 8.6328-134.68-43.164-165.75-1.7266 1.7266-65.613 131.22 25.898 170.93-5.1797-20.719-15.539-34.531-15.539-70.793 8.6328 29.352 20.719 44.891 32.805 65.613z" fill="#4e2146" fill-rule="evenodd"/>
 <path d="m418.7 267.62c17.266-56.977-17.266-138.13-74.246-169.21-1.7266 1.7266-43.164 132.95 56.977 172.66-8.6328-18.992-22.445-34.531-27.625-70.793 12.086 29.352 27.625 44.891 44.891 67.34z" fill="#4e2146" fill-rule="evenodd"/>
 <path d="m629.35 219.28c-51.797-39.711-62.16-126.04-17.266-183.02 3.4531 0 124.32 88.059 37.984 177.84-1.7266-22.445 3.4531-43.164-10.359-75.973 3.4531 32.805-3.4531 53.523-10.359 81.152z" fill="#4e2146" fill-rule="evenodd"/>
 <path d="m941.87 564.61c56.977 27.625 139.86 0 172.66-65.613-1.7266-1.7266-134.68-72.52-177.84 43.164 20.719-6.9062 37.984-22.445 74.246-22.445-31.078 10.359-46.617 27.625-69.066 44.891z" fill="#4e2146" fill-rule="evenodd"/>
 <path d="m762.3 296.98c70.793 25.898 164.03-20.719 191.66-101.87-1.7266-3.4531-167.48-65.613-200.29 77.699 22.445-12.086 39.711-31.078 82.879-39.711-36.258 18.992-51.797 41.438-74.246 63.887z" fill="#4e2146" fill-rule="evenodd"/>
 <path d="m757.12 200.29c56.977-5.1797 105.32-65.613 98.418-129.5-1.7266-1.7266-134.68 6.9062-112.23 115.68 12.086-15.539 17.266-34.531 44.891-53.523-18.992 24.172-22.445 43.164-31.078 67.34z" fill="#4e2146" fill-rule="evenodd"/>
 <path d="m974.68 467.91c56.977-5.1797 105.32-65.613 98.418-129.5-1.7266-1.7266-132.95 8.6328-110.5 115.68 12.086-15.539 17.266-34.531 43.164-51.797-17.266 22.445-22.445 43.164-31.078 65.613z" fill="#4e2146" fill-rule="evenodd"/>
 <path d="m876.26 303.89c32.805-46.617 110.5-56.977 160.57-18.992 1.7266 1.7266-74.246 112.23-155.39 37.984 20.719-3.4531 37.984 1.7266 67.34-12.086-29.352 3.4531-48.344-1.7266-72.52-6.9062z" fill="#4e2146" fill-rule="evenodd"/>
 <path d="m511.94 207.2c-43.164-20.719-62.16-86.332-34.531-138.13 1.7266 0 107.05 46.617 50.07 129.5-3.4531-17.266-1.7266-32.805-17.266-56.977 6.9062 25.898 3.4531 43.164 1.7266 65.613z" fill="#4e2146" fill-rule="evenodd"/>
 <path d="m201.15 355.68c8.6328-48.344-32.805-101.87-89.785-108.78-1.7266 0-27.625 112.23 72.52 117.41-10.359-13.812-24.172-22.445-34.531-48.344 15.539 20.719 32.805 27.625 51.797 39.711z" fill="#4e2146" fill-rule="evenodd"/>
 <path d="m211.51 264.17c17.266-51.797-8.6328-117.41-58.703-134.68-1.7266 1.7266-44.891 122.59 43.164 141.58-6.9062-15.539-18.992-27.625-22.445-56.977 10.359 24.172 24.172 34.531 37.984 50.07z" fill="#4e2146" fill-rule="evenodd"/>
 <path d="m304.75 207.2c-51.797-6.9062-93.238-62.16-84.605-119.14 1.7266-1.7266 119.14 10.359 96.691 105.32-10.359-13.812-15.539-29.352-37.984-46.617 15.539 20.719 18.992 37.984 25.898 60.434z" fill="#4e2146" fill-rule="evenodd"/>
 <path d="m446.33 146.76c17.266-50.07-8.6328-110.5-55.25-126.04-1.7266 1.7266-41.438 113.96 41.438 131.22-6.9062-15.539-17.266-25.898-20.719-53.523 10.359 22.445 22.445 32.805 34.531 48.344z" fill="#4e2146" fill-rule="evenodd"/>
 <path d="m553.38 122.59c-37.984-20.719-53.523-79.426-29.352-122.59 1.7266 0 93.238 46.617 43.164 115.68-3.4531-13.812-1.7266-29.352-13.812-50.07 5.1797 22.445 1.7266 37.984 0 56.977z" fill="#4e2146" fill-rule="evenodd"/>
 <path d="m701.87 131.22c-27.625-34.531-20.719-93.238 18.992-124.32 1.7266 0 67.34 77.699-3.4531 122.59 1.7266-13.812 8.6328-27.625 5.1797-51.797-3.4531 22.445-12.086 36.258-20.719 53.523z" fill="#4e2146" fill-rule="evenodd"/>
</svg>
